<mxfile host="65bd71144e">
    <diagram id="cXFrf4ankxhcwh8QUdrE" name="Page-1">
        <mxGraphModel dx="1033" dy="779" grid="1" gridSize="10" guides="1" tooltips="1" connect="1" arrows="1" fold="1" page="1" pageScale="1" pageWidth="850" pageHeight="1100" math="0" shadow="0">
            <root>
                <mxCell id="0"/>
                <mxCell id="1" parent="0"/>
                <mxCell id="YcCw3LsbVFZQEpeVawfD-92" value="" style="rounded=0;whiteSpace=wrap;html=1;" vertex="1" parent="1">
                    <mxGeometry x="30" y="560" width="770" height="400" as="geometry"/>
                </mxCell>
                <mxCell id="32" value="" style="rounded=0;whiteSpace=wrap;html=1;" vertex="1" parent="1">
                    <mxGeometry x="30" y="110" width="770" height="400" as="geometry"/>
                </mxCell>
                <mxCell id="7" value="" style="rounded=0;whiteSpace=wrap;html=1;" vertex="1" parent="1">
                    <mxGeometry x="30" y="110" width="770" height="60" as="geometry"/>
                </mxCell>
                <mxCell id="13" value="App name" style="ellipse;whiteSpace=wrap;html=1;" vertex="1" parent="1">
                    <mxGeometry x="40" y="116.25" width="120" height="47.5" as="geometry"/>
                </mxCell>
                <mxCell id="24" value="Home Page for Prototype" style="text;html=1;align=center;verticalAlign=middle;whiteSpace=wrap;rounded=0;fontSize=23;" vertex="1" parent="1">
                    <mxGeometry x="220" y="40" width="390" height="60" as="geometry"/>
                </mxCell>
                <mxCell id="27" value="Log in" style="rounded=1;whiteSpace=wrap;html=1;" vertex="1" parent="1">
                    <mxGeometry x="670" y="124.07" width="100" height="31.87" as="geometry"/>
                </mxCell>
                <mxCell id="34" value="" style="rounded=0;whiteSpace=wrap;html=1;" vertex="1" parent="1">
                    <mxGeometry x="30" y="560" width="770" height="60" as="geometry"/>
                </mxCell>
                <mxCell id="35" value="App name" style="ellipse;whiteSpace=wrap;html=1;" vertex="1" parent="1">
                    <mxGeometry x="40" y="566.25" width="120" height="47.5" as="geometry"/>
                </mxCell>
                <mxCell id="37" value="Home" style="text;html=1;align=center;verticalAlign=middle;whiteSpace=wrap;rounded=0;" vertex="1" parent="1">
                    <mxGeometry x="60" y="660" width="60" height="30" as="geometry"/>
                </mxCell>
                <mxCell id="38" value="Profile" style="text;html=1;align=center;verticalAlign=middle;whiteSpace=wrap;rounded=0;" vertex="1" parent="1">
                    <mxGeometry x="60" y="715" width="60" height="30" as="geometry"/>
                </mxCell>
                <mxCell id="39" value="Submit a report" style="text;html=1;align=center;verticalAlign=middle;whiteSpace=wrap;rounded=0;" vertex="1" parent="1">
                    <mxGeometry x="60" y="775" width="60" height="30" as="geometry"/>
                </mxCell>
                <mxCell id="40" value="Documentation" style="text;html=1;align=center;verticalAlign=middle;whiteSpace=wrap;rounded=0;" vertex="1" parent="1">
                    <mxGeometry x="60" y="835" width="60" height="50" as="geometry"/>
                </mxCell>
                <mxCell id="42" value="Contact us" style="rounded=1;whiteSpace=wrap;html=1;" vertex="1" parent="1">
                    <mxGeometry x="500" y="570" width="120" height="43.75" as="geometry"/>
                </mxCell>
                <mxCell id="43" value="Log in" style="rounded=1;whiteSpace=wrap;html=1;" vertex="1" parent="1">
                    <mxGeometry x="650" y="568.13" width="120" height="43.75" as="geometry"/>
                </mxCell>
                <mxCell id="44" value="Profile Page" style="text;html=1;align=center;verticalAlign=middle;whiteSpace=wrap;rounded=0;fontSize=22;" vertex="1" parent="1">
                    <mxGeometry x="250" y="520" width="330" height="30" as="geometry"/>
                </mxCell>
                <mxCell id="45" value="" style="ellipse;whiteSpace=wrap;html=1;aspect=fixed;" vertex="1" parent="1">
                    <mxGeometry x="170" y="645" width="70" height="70" as="geometry"/>
                </mxCell>
                <mxCell id="46" value="Username" style="text;html=1;align=center;verticalAlign=middle;whiteSpace=wrap;rounded=0;" vertex="1" parent="1">
                    <mxGeometry x="175" y="720" width="60" height="30" as="geometry"/>
                </mxCell>
                <mxCell id="47" value="Reports Status" style="rounded=0;whiteSpace=wrap;html=1;" vertex="1" parent="1">
                    <mxGeometry x="330" y="657.5" width="115" height="45" as="geometry"/>
                </mxCell>
                <mxCell id="YcCw3LsbVFZQEpeVawfD-65" value="Issued by organisation" style="rounded=0;whiteSpace=wrap;html=1;" vertex="1" parent="1">
                    <mxGeometry x="330" y="850" width="150" height="45" as="geometry"/>
                </mxCell>
                <mxCell id="YcCw3LsbVFZQEpeVawfD-66" value="Home" style="text;html=1;align=center;verticalAlign=middle;whiteSpace=wrap;rounded=0;" vertex="1" parent="1">
                    <mxGeometry x="60" y="195" width="120" height="35" as="geometry"/>
                </mxCell>
                <mxCell id="YcCw3LsbVFZQEpeVawfD-67" value="I can Help!!" style="rounded=1;whiteSpace=wrap;html=1;align=left;" vertex="1" parent="1">
                    <mxGeometry x="100" y="440" width="660" height="40" as="geometry"/>
                </mxCell>
                <mxCell id="YcCw3LsbVFZQEpeVawfD-77" value="Reports Status" style="rounded=1;whiteSpace=wrap;html=1;" vertex="1" parent="1">
                    <mxGeometry x="330" y="715" width="440" height="120" as="geometry"/>
                </mxCell>
                <mxCell id="YcCw3LsbVFZQEpeVawfD-80" value="organisation detail and bug problem ( for later)" style="rounded=1;whiteSpace=wrap;html=1;" vertex="1" parent="1">
                    <mxGeometry x="330" y="900" width="440" height="60" as="geometry"/>
                </mxCell>
                <mxCell id="YcCw3LsbVFZQEpeVawfD-81" value="user Bio" style="shape=loopLimit;whiteSpace=wrap;html=1;" vertex="1" parent="1">
                    <mxGeometry x="155" y="760" width="100" height="190" as="geometry"/>
                </mxCell>
                <mxCell id="YcCw3LsbVFZQEpeVawfD-85" value="Profile" style="text;html=1;align=center;verticalAlign=middle;whiteSpace=wrap;rounded=0;" vertex="1" parent="1">
                    <mxGeometry x="310" y="125.94" width="60" height="30" as="geometry"/>
                </mxCell>
                <mxCell id="YcCw3LsbVFZQEpeVawfD-86" value="Submit a report" style="text;html=1;align=center;verticalAlign=middle;whiteSpace=wrap;rounded=0;" vertex="1" parent="1">
                    <mxGeometry x="410" y="125.94" width="60" height="30" as="geometry"/>
                </mxCell>
                <mxCell id="YcCw3LsbVFZQEpeVawfD-87" value="Documentation" style="text;html=1;align=center;verticalAlign=middle;whiteSpace=wrap;rounded=0;" vertex="1" parent="1">
                    <mxGeometry x="540" y="113.75" width="60" height="50" as="geometry"/>
                </mxCell>
                <mxCell id="YcCw3LsbVFZQEpeVawfD-90" value="An AI Powered Bug Detector and Report Creator" style="rounded=1;whiteSpace=wrap;html=1;" vertex="1" parent="1">
                    <mxGeometry x="100" y="250" width="660" height="180" as="geometry"/>
                </mxCell>
            </root>
        </mxGraphModel>
    </diagram>
    <diagram id="QR8NXaVF76J8fkQ9f1mB" name="Page-2">
        <mxGraphModel dx="1033" dy="779" grid="1" gridSize="10" guides="1" tooltips="1" connect="1" arrows="1" fold="1" page="1" pageScale="1" pageWidth="850" pageHeight="1100" math="0" shadow="0">
            <root>
                <mxCell id="0"/>
                <mxCell id="1" parent="0"/>
                <mxCell id="kf2SuqQNubpcyltskz7_-64" value="" style="rounded=0;whiteSpace=wrap;html=1;" vertex="1" parent="1">
                    <mxGeometry x="20" y="60" width="770" height="400" as="geometry"/>
                </mxCell>
                <mxCell id="kf2SuqQNubpcyltskz7_-1" value="" style="rounded=0;whiteSpace=wrap;html=1;" vertex="1" parent="1">
                    <mxGeometry x="30" y="145" width="100" height="60" as="geometry"/>
                </mxCell>
                <mxCell id="kf2SuqQNubpcyltskz7_-2" value="" style="rounded=0;whiteSpace=wrap;html=1;" vertex="1" parent="1">
                    <mxGeometry x="40" y="170" width="120" height="60" as="geometry"/>
                </mxCell>
                <mxCell id="kf2SuqQNubpcyltskz7_-3" value="" style="rounded=0;whiteSpace=wrap;html=1;" vertex="1" parent="1">
                    <mxGeometry x="20" y="60" width="770" height="400" as="geometry"/>
                </mxCell>
                <mxCell id="kf2SuqQNubpcyltskz7_-4" value="" style="rounded=0;whiteSpace=wrap;html=1;" vertex="1" parent="1">
                    <mxGeometry x="20" y="60" width="770" height="60" as="geometry"/>
                </mxCell>
                <mxCell id="kf2SuqQNubpcyltskz7_-5" value="App name" style="ellipse;whiteSpace=wrap;html=1;" vertex="1" parent="1">
                    <mxGeometry x="30" y="66.25" width="120" height="47.5" as="geometry"/>
                </mxCell>
                <mxCell id="kf2SuqQNubpcyltskz7_-6" value="Home" style="text;html=1;align=center;verticalAlign=middle;whiteSpace=wrap;rounded=0;" vertex="1" parent="1">
                    <mxGeometry x="50" y="160" width="60" height="30" as="geometry"/>
                </mxCell>
                <mxCell id="kf2SuqQNubpcyltskz7_-7" value="Profile" style="text;html=1;align=center;verticalAlign=middle;whiteSpace=wrap;rounded=0;" vertex="1" parent="1">
                    <mxGeometry x="50" y="220" width="60" height="30" as="geometry"/>
                </mxCell>
                <mxCell id="kf2SuqQNubpcyltskz7_-8" value="Submit a report" style="text;html=1;align=center;verticalAlign=middle;whiteSpace=wrap;rounded=0;" vertex="1" parent="1">
                    <mxGeometry x="50" y="300" width="60" height="30" as="geometry"/>
                </mxCell>
                <mxCell id="kf2SuqQNubpcyltskz7_-9" value="Documentation" style="text;html=1;align=center;verticalAlign=middle;whiteSpace=wrap;rounded=0;" vertex="1" parent="1">
                    <mxGeometry x="50" y="370" width="60" height="50" as="geometry"/>
                </mxCell>
                <mxCell id="kf2SuqQNubpcyltskz7_-10" value="" style="endArrow=none;html=1;entryX=0.153;entryY=0.967;entryDx=0;entryDy=0;entryPerimeter=0;exitX=0.152;exitY=1.008;exitDx=0;exitDy=0;exitPerimeter=0;" edge="1" parent="1" source="kf2SuqQNubpcyltskz7_-3" target="kf2SuqQNubpcyltskz7_-4">
                    <mxGeometry width="50" height="50" relative="1" as="geometry">
                        <mxPoint x="100" y="220" as="sourcePoint"/>
                        <mxPoint x="150" y="170" as="targetPoint"/>
                    </mxGeometry>
                </mxCell>
                <mxCell id="kf2SuqQNubpcyltskz7_-11" value="Contact us" style="rounded=1;whiteSpace=wrap;html=1;" vertex="1" parent="1">
                    <mxGeometry x="490" y="68.13" width="120" height="43.75" as="geometry"/>
                </mxCell>
                <mxCell id="kf2SuqQNubpcyltskz7_-12" value="Log in" style="rounded=1;whiteSpace=wrap;html=1;" vertex="1" parent="1">
                    <mxGeometry x="640" y="68.13" width="120" height="43.75" as="geometry"/>
                </mxCell>
                <mxCell id="kf2SuqQNubpcyltskz7_-20" value="Report Submission Page" style="text;html=1;align=center;verticalAlign=middle;whiteSpace=wrap;rounded=0;fontSize=18;" vertex="1" parent="1">
                    <mxGeometry x="260" y="10" width="310" height="30" as="geometry"/>
                </mxCell>
                <mxCell id="kf2SuqQNubpcyltskz7_-21" value="submit a vulnerable Url&amp;nbsp;" style="rounded=0;whiteSpace=wrap;html=1;" vertex="1" parent="1">
                    <mxGeometry x="150" y="130" width="260" height="40" as="geometry"/>
                </mxCell>
                <mxCell id="kf2SuqQNubpcyltskz7_-60" value="submit a vulnerable file" style="rounded=0;whiteSpace=wrap;html=1;" vertex="1" parent="1">
                    <mxGeometry x="440" y="130" width="330" height="40" as="geometry"/>
                </mxCell>
                <mxCell id="kf2SuqQNubpcyltskz7_-61" value="" style="endArrow=none;html=1;exitX=0.5;exitY=1;exitDx=0;exitDy=0;entryX=0.5;entryY=1;entryDx=0;entryDy=0;" edge="1" parent="1">
                    <mxGeometry width="50" height="50" relative="1" as="geometry">
                        <mxPoint x="424" y="120" as="sourcePoint"/>
                        <mxPoint x="424" y="460" as="targetPoint"/>
                    </mxGeometry>
                </mxCell>
                <mxCell id="kf2SuqQNubpcyltskz7_-95" value="" style="rounded=1;whiteSpace=wrap;html=1;" vertex="1" parent="1">
                    <mxGeometry x="160" y="436.25" width="230" height="15" as="geometry"/>
                </mxCell>
                <mxCell id="kf2SuqQNubpcyltskz7_-97" value="" style="rounded=1;whiteSpace=wrap;html=1;" vertex="1" parent="1">
                    <mxGeometry x="160" y="387.5" width="230" height="15" as="geometry"/>
                </mxCell>
                <mxCell id="kf2SuqQNubpcyltskz7_-98" value="Affected url" style="text;html=1;align=center;verticalAlign=middle;whiteSpace=wrap;rounded=0;" vertex="1" parent="1">
                    <mxGeometry x="110" y="361.25" width="170" height="30" as="geometry"/>
                </mxCell>
                <mxCell id="kf2SuqQNubpcyltskz7_-99" value="" style="rounded=1;whiteSpace=wrap;html=1;" vertex="1" parent="1">
                    <mxGeometry x="165" y="343.75" width="230" height="15" as="geometry"/>
                </mxCell>
                <mxCell id="kf2SuqQNubpcyltskz7_-100" value="Title (auto generated)" style="text;html=1;align=center;verticalAlign=middle;whiteSpace=wrap;rounded=0;" vertex="1" parent="1">
                    <mxGeometry x="150" y="313.75" width="140" height="30" as="geometry"/>
                </mxCell>
                <mxCell id="kf2SuqQNubpcyltskz7_-101" value="" style="rounded=1;whiteSpace=wrap;html=1;" vertex="1" parent="1">
                    <mxGeometry x="165" y="296.25" width="230" height="15" as="geometry"/>
                </mxCell>
                <mxCell id="kf2SuqQNubpcyltskz7_-103" value="" style="rounded=1;whiteSpace=wrap;html=1;" vertex="1" parent="1">
                    <mxGeometry x="165" y="251.25" width="230" height="15" as="geometry"/>
                </mxCell>
                <mxCell id="kf2SuqQNubpcyltskz7_-104" value="Program_id (drop down )" style="text;html=1;align=center;verticalAlign=middle;whiteSpace=wrap;rounded=0;" vertex="1" parent="1">
                    <mxGeometry x="130" y="230" width="200" height="13.75" as="geometry"/>
                </mxCell>
                <mxCell id="kf2SuqQNubpcyltskz7_-105" value="" style="rounded=1;whiteSpace=wrap;html=1;" vertex="1" parent="1">
                    <mxGeometry x="165" y="208.75" width="230" height="15" as="geometry"/>
                </mxCell>
                <mxCell id="kf2SuqQNubpcyltskz7_-106" value="id (auto generated)" style="text;html=1;align=center;verticalAlign=middle;whiteSpace=wrap;rounded=0;" vertex="1" parent="1">
                    <mxGeometry x="150" y="178.75" width="130" height="30" as="geometry"/>
                </mxCell>
                <mxCell id="kf2SuqQNubpcyltskz7_-108" value="Step by step instruction (Good for demo)" style="text;html=1;align=center;verticalAlign=middle;whiteSpace=wrap;rounded=0;" vertex="1" parent="1">
                    <mxGeometry x="160" y="403.75" width="220" height="30" as="geometry"/>
                </mxCell>
                <mxCell id="kf2SuqQNubpcyltskz7_-119" value="Step by step instruction (Good for demo)" style="text;html=1;align=center;verticalAlign=middle;whiteSpace=wrap;rounded=0;" vertex="1" parent="1">
                    <mxGeometry x="460" y="406.25" width="220" height="30" as="geometry"/>
                </mxCell>
                <mxCell id="kf2SuqQNubpcyltskz7_-126" value="Program_id (drop down )" style="text;html=1;align=center;verticalAlign=middle;whiteSpace=wrap;rounded=0;" vertex="1" parent="1">
                    <mxGeometry x="425" y="230" width="200" height="13.75" as="geometry"/>
                </mxCell>
                <mxCell id="kf2SuqQNubpcyltskz7_-129" value="" style="rounded=1;whiteSpace=wrap;html=1;" vertex="1" parent="1">
                    <mxGeometry x="460" y="433.75" width="230" height="15" as="geometry"/>
                </mxCell>
                <mxCell id="kf2SuqQNubpcyltskz7_-131" value="upload file" style="rounded=1;whiteSpace=wrap;html=1;" vertex="1" parent="1">
                    <mxGeometry x="470" y="387.5" width="70" height="15" as="geometry"/>
                </mxCell>
                <mxCell id="kf2SuqQNubpcyltskz7_-133" value="" style="rounded=1;whiteSpace=wrap;html=1;" vertex="1" parent="1">
                    <mxGeometry x="460" y="341.25" width="230" height="15" as="geometry"/>
                </mxCell>
                <mxCell id="kf2SuqQNubpcyltskz7_-134" value="Title (auto generated)" style="text;html=1;align=center;verticalAlign=middle;whiteSpace=wrap;rounded=0;" vertex="1" parent="1">
                    <mxGeometry x="445" y="311.25" width="140" height="30" as="geometry"/>
                </mxCell>
                <mxCell id="kf2SuqQNubpcyltskz7_-135" value="" style="rounded=1;whiteSpace=wrap;html=1;" vertex="1" parent="1">
                    <mxGeometry x="460" y="293.75" width="230" height="15" as="geometry"/>
                </mxCell>
                <mxCell id="kf2SuqQNubpcyltskz7_-136" value="" style="rounded=1;whiteSpace=wrap;html=1;" vertex="1" parent="1">
                    <mxGeometry x="460" y="250" width="230" height="15" as="geometry"/>
                </mxCell>
                <mxCell id="kf2SuqQNubpcyltskz7_-138" value="" style="rounded=1;whiteSpace=wrap;html=1;" vertex="1" parent="1">
                    <mxGeometry x="460" y="206.25" width="230" height="15" as="geometry"/>
                </mxCell>
                <mxCell id="kf2SuqQNubpcyltskz7_-139" value="id (auto generated)" style="text;html=1;align=center;verticalAlign=middle;whiteSpace=wrap;rounded=0;" vertex="1" parent="1">
                    <mxGeometry x="445" y="176.25" width="130" height="30" as="geometry"/>
                </mxCell>
                <mxCell id="kf2SuqQNubpcyltskz7_-151" value="upload Affected file" style="text;html=1;align=center;verticalAlign=middle;whiteSpace=wrap;rounded=0;" vertex="1" parent="1">
                    <mxGeometry x="430" y="358.75" width="170" height="30" as="geometry"/>
                </mxCell>
                <mxCell id="kf2SuqQNubpcyltskz7_-153" value="Username&lt;span style=&quot;font-family: monospace; font-size: 0px; text-align: start; text-wrap-mode: nowrap;&quot;&gt;%3CmxGraphModel%3E%3Croot%3E%3CmxCell%20id%3D%220%22%2F%3E%3CmxCell%20id%3D%221%22%20parent%3D%220%22%2F%3E%3CmxCell%20id%3D%222%22%20value%3D%22%22%20style%3D%22rounded%3D1%3BwhiteSpace%3Dwrap%3Bhtml%3D1%3B%22%20vertex%3D%221%22%20parent%3D%221%22%3E%3CmxGeometry%20x%3D%22165%22%20y%3D%22436.25%22%20width%3D%22230%22%20height%3D%2215%22%20as%3D%22geometry%22%2F%3E%3C%2FmxCell%3E%3CmxCell%20id%3D%223%22%20value%3D%22Step%20by%20step%20instruction%20(Good%20for%20demo)%22%20style%3D%22text%3Bhtml%3D1%3Balign%3Dcenter%3BverticalAlign%3Dmiddle%3BwhiteSpace%3Dwrap%3Brounded%3D0%3B%22%20vertex%3D%221%22%20parent%3D%221%22%3E%3CmxGeometry%20x%3D%22160%22%20y%3D%22406.25%22%20width%3D%22220%22%20height%3D%2230%22%20as%3D%22geometry%22%2F%3E%3C%2FmxCell%3E%3CmxCell%20id%3D%224%22%20value%3D%22%22%20style%3D%22rounded%3D1%3BwhiteSpace%3Dwrap%3Bhtml%3D1%3B%22%20vertex%3D%221%22%20parent%3D%221%22%3E%3CmxGeometry%20x%3D%22165%22%20y%3D%22391.25%22%20width%3D%22230%22%20height%3D%2215%22%20as%3D%22geometry%22%2F%3E%3C%2FmxCell%3E%3CmxCell%20id%3D%225%22%20value%3D%22Affected%20url%22%20style%3D%22text%3Bhtml%3D1%3Balign%3Dcenter%3BverticalAlign%3Dmiddle%3BwhiteSpace%3Dwrap%3Brounded%3D0%3B%22%20vertex%3D%221%22%20parent%3D%221%22%3E%3CmxGeometry%20x%3D%22110%22%20y%3D%22361.25%22%20width%3D%22170%22%20height%3D%2230%22%20as%3D%22geometry%22%2F%3E%3C%2FmxCell%3E%3CmxCell%20id%3D%226%22%20value%3D%22%22%20style%3D%22rounded%3D1%3BwhiteSpace%3Dwrap%3Bhtml%3D1%3B%22%20vertex%3D%221%22%20parent%3D%221%22%3E%3CmxGeometry%20x%3D%22165%22%20y%3D%22343.75%22%20width%3D%22230%22%20height%3D%2215%22%20as%3D%22geometry%22%2F%3E%3C%2FmxCell%3E%3CmxCell%20id%3D%227%22%20value%3D%22Title%20(auto%20generated)%22%20style%3D%22text%3Bhtml%3D1%3Balign%3Dcenter%3BverticalAlign%3Dmiddle%3BwhiteSpace%3Dwrap%3Brounded%3D0%3B%22%20vertex%3D%221%22%20parent%3D%221%22%3E%3CmxGeometry%20x%3D%22150%22%20y%3D%22313.75%22%20width%3D%22140%22%20height%3D%2230%22%20as%3D%22geometry%22%2F%3E%3C%2FmxCell%3E%3CmxCell%20id%3D%228%22%20value%3D%22%22%20style%3D%22rounded%3D1%3BwhiteSpace%3Dwrap%3Bhtml%3D1%3B%22%20vertex%3D%221%22%20parent%3D%221%22%3E%3CmxGeometry%20x%3D%22165%22%20y%3D%22296.25%22%20width%3D%22230%22%20height%3D%2215%22%20as%3D%22geometry%22%2F%3E%3C%2FmxCell%3E%3CmxCell%20id%3D%229%22%20value%3D%22%22%20style%3D%22rounded%3D1%3BwhiteSpace%3Dwrap%3Bhtml%3D1%3B%22%20vertex%3D%221%22%20parent%3D%221%22%3E%3CmxGeometry%20x%3D%22165%22%20y%3D%22251.25%22%20width%3D%22230%22%20height%3D%2215%22%20as%3D%22geometry%22%2F%3E%3C%2FmxCell%3E%3CmxCell%20id%3D%2210%22%20value%3D%22Program_id%20(drop%20down%20)%22%20style%3D%22text%3Bhtml%3D1%3Balign%3Dcenter%3BverticalAlign%3Dmiddle%3BwhiteSpace%3Dwrap%3Brounded%3D0%3B%22%20vertex%3D%221%22%20parent%3D%221%22%3E%3CmxGeometry%20x%3D%22130%22%20y%3D%22236.25%22%20width%3D%22200%22%20height%3D%2213.75%22%20as%3D%22geometry%22%2F%3E%3C%2FmxCell%3E%3CmxCell%20id%3D%2211%22%20value%3D%22%22%20style%3D%22rounded%3D1%3BwhiteSpace%3Dwrap%3Bhtml%3D1%3B%22%20vertex%3D%221%22%20parent%3D%221%22%3E%3CmxGeometry%20x%3D%22165%22%20y%3D%22208.75%22%20width%3D%22230%22%20height%3D%2215%22%20as%3D%22geometry%22%2F%3E%3C%2FmxCell%3E%3CmxCell%20id%3D%2212%22%20value%3D%22id%20(auto%20generated)%22%20style%3D%22text%3Bhtml%3D1%3Balign%3Dcenter%3BverticalAlign%3Dmiddle%3BwhiteSpace%3Dwrap%3Brounded%3D0%3B%22%20vertex%3D%221%22%20parent%3D%221%22%3E%3CmxGeometry%20x%3D%22150%22%20y%3D%22178.75%22%20width%3D%22130%22%20height%3D%2230%22%20as%3D%22geometry%22%2F%3E%3C%2FmxCell%3E%3C%2Froot%3E%3C%2FmxGraphModel%3E&lt;/span&gt;" style="text;html=1;align=center;verticalAlign=middle;whiteSpace=wrap;rounded=0;" vertex="1" parent="1">
                    <mxGeometry x="165" y="266" width="60" height="30" as="geometry"/>
                </mxCell>
                <mxCell id="kf2SuqQNubpcyltskz7_-154" value="Username&lt;span style=&quot;font-family: monospace; font-size: 0px; text-align: start; text-wrap-mode: nowrap;&quot;&gt;%3CmxGraphModel%3E%3Croot%3E%3CmxCell%20id%3D%220%22%2F%3E%3CmxCell%20id%3D%221%22%20parent%3D%220%22%2F%3E%3CmxCell%20id%3D%222%22%20value%3D%22%22%20style%3D%22rounded%3D1%3BwhiteSpace%3Dwrap%3Bhtml%3D1%3B%22%20vertex%3D%221%22%20parent%3D%221%22%3E%3CmxGeometry%20x%3D%22165%22%20y%3D%22436.25%22%20width%3D%22230%22%20height%3D%2215%22%20as%3D%22geometry%22%2F%3E%3C%2FmxCell%3E%3CmxCell%20id%3D%223%22%20value%3D%22Step%20by%20step%20instruction%20(Good%20for%20demo)%22%20style%3D%22text%3Bhtml%3D1%3Balign%3Dcenter%3BverticalAlign%3Dmiddle%3BwhiteSpace%3Dwrap%3Brounded%3D0%3B%22%20vertex%3D%221%22%20parent%3D%221%22%3E%3CmxGeometry%20x%3D%22160%22%20y%3D%22406.25%22%20width%3D%22220%22%20height%3D%2230%22%20as%3D%22geometry%22%2F%3E%3C%2FmxCell%3E%3CmxCell%20id%3D%224%22%20value%3D%22%22%20style%3D%22rounded%3D1%3BwhiteSpace%3Dwrap%3Bhtml%3D1%3B%22%20vertex%3D%221%22%20parent%3D%221%22%3E%3CmxGeometry%20x%3D%22165%22%20y%3D%22391.25%22%20width%3D%22230%22%20height%3D%2215%22%20as%3D%22geometry%22%2F%3E%3C%2FmxCell%3E%3CmxCell%20id%3D%225%22%20value%3D%22Affected%20url%22%20style%3D%22text%3Bhtml%3D1%3Balign%3Dcenter%3BverticalAlign%3Dmiddle%3BwhiteSpace%3Dwrap%3Brounded%3D0%3B%22%20vertex%3D%221%22%20parent%3D%221%22%3E%3CmxGeometry%20x%3D%22110%22%20y%3D%22361.25%22%20width%3D%22170%22%20height%3D%2230%22%20as%3D%22geometry%22%2F%3E%3C%2FmxCell%3E%3CmxCell%20id%3D%226%22%20value%3D%22%22%20style%3D%22rounded%3D1%3BwhiteSpace%3Dwrap%3Bhtml%3D1%3B%22%20vertex%3D%221%22%20parent%3D%221%22%3E%3CmxGeometry%20x%3D%22165%22%20y%3D%22343.75%22%20width%3D%22230%22%20height%3D%2215%22%20as%3D%22geometry%22%2F%3E%3C%2FmxCell%3E%3CmxCell%20id%3D%227%22%20value%3D%22Title%20(auto%20generated)%22%20style%3D%22text%3Bhtml%3D1%3Balign%3Dcenter%3BverticalAlign%3Dmiddle%3BwhiteSpace%3Dwrap%3Brounded%3D0%3B%22%20vertex%3D%221%22%20parent%3D%221%22%3E%3CmxGeometry%20x%3D%22150%22%20y%3D%22313.75%22%20width%3D%22140%22%20height%3D%2230%22%20as%3D%22geometry%22%2F%3E%3C%2FmxCell%3E%3CmxCell%20id%3D%228%22%20value%3D%22%22%20style%3D%22rounded%3D1%3BwhiteSpace%3Dwrap%3Bhtml%3D1%3B%22%20vertex%3D%221%22%20parent%3D%221%22%3E%3CmxGeometry%20x%3D%22165%22%20y%3D%22296.25%22%20width%3D%22230%22%20height%3D%2215%22%20as%3D%22geometry%22%2F%3E%3C%2FmxCell%3E%3CmxCell%20id%3D%229%22%20value%3D%22%22%20style%3D%22rounded%3D1%3BwhiteSpace%3Dwrap%3Bhtml%3D1%3B%22%20vertex%3D%221%22%20parent%3D%221%22%3E%3CmxGeometry%20x%3D%22165%22%20y%3D%22251.25%22%20width%3D%22230%22%20height%3D%2215%22%20as%3D%22geometry%22%2F%3E%3C%2FmxCell%3E%3CmxCell%20id%3D%2210%22%20value%3D%22Program_id%20(drop%20down%20)%22%20style%3D%22text%3Bhtml%3D1%3Balign%3Dcenter%3BverticalAlign%3Dmiddle%3BwhiteSpace%3Dwrap%3Brounded%3D0%3B%22%20vertex%3D%221%22%20parent%3D%221%22%3E%3CmxGeometry%20x%3D%22130%22%20y%3D%22236.25%22%20width%3D%22200%22%20height%3D%2213.75%22%20as%3D%22geometry%22%2F%3E%3C%2FmxCell%3E%3CmxCell%20id%3D%2211%22%20value%3D%22%22%20style%3D%22rounded%3D1%3BwhiteSpace%3Dwrap%3Bhtml%3D1%3B%22%20vertex%3D%221%22%20parent%3D%221%22%3E%3CmxGeometry%20x%3D%22165%22%20y%3D%22208.75%22%20width%3D%22230%22%20height%3D%2215%22%20as%3D%22geometry%22%2F%3E%3C%2FmxCell%3E%3CmxCell%20id%3D%2212%22%20value%3D%22id%20(auto%20generated)%22%20style%3D%22text%3Bhtml%3D1%3Balign%3Dcenter%3BverticalAlign%3Dmiddle%3BwhiteSpace%3Dwrap%3Brounded%3D0%3B%22%20vertex%3D%221%22%20parent%3D%221%22%3E%3CmxGeometry%20x%3D%22150%22%20y%3D%22178.75%22%20width%3D%22130%22%20height%3D%2230%22%20as%3D%22geometry%22%2F%3E%3C%2FmxCell%3E%3C%2Froot%3E%3C%2FmxGraphModel%3E&lt;/span&gt;" style="text;html=1;align=center;verticalAlign=middle;whiteSpace=wrap;rounded=0;" vertex="1" parent="1">
                    <mxGeometry x="460" y="266.25" width="60" height="30" as="geometry"/>
                </mxCell>
                <mxCell id="kf2SuqQNubpcyltskz7_-156" value="" style="shape=table;startSize=0;container=1;collapsible=0;childLayout=tableLayout;fontSize=16;" vertex="1" parent="1">
                    <mxGeometry x="40" y="510" width="480" height="387" as="geometry"/>
                </mxCell>
                <mxCell id="kf2SuqQNubpcyltskz7_-157" value="" style="shape=tableRow;horizontal=0;startSize=0;swimlaneHead=0;swimlaneBody=0;strokeColor=inherit;top=0;left=0;bottom=0;right=0;collapsible=0;dropTarget=0;fillColor=none;points=[[0,0.5],[1,0.5]];portConstraint=eastwest;fontSize=16;" vertex="1" parent="kf2SuqQNubpcyltskz7_-156">
                    <mxGeometry width="480" height="97" as="geometry"/>
                </mxCell>
                <mxCell id="kf2SuqQNubpcyltskz7_-158" value="id" style="shape=partialRectangle;html=1;whiteSpace=wrap;connectable=0;strokeColor=inherit;overflow=hidden;fillColor=none;top=0;left=0;bottom=0;right=0;pointerEvents=1;fontSize=16;" vertex="1" parent="kf2SuqQNubpcyltskz7_-157">
                    <mxGeometry width="160" height="97" as="geometry">
                        <mxRectangle width="160" height="97" as="alternateBounds"/>
                    </mxGeometry>
                </mxCell>
                <mxCell id="kf2SuqQNubpcyltskz7_-159" value="INT" style="shape=partialRectangle;html=1;whiteSpace=wrap;connectable=0;strokeColor=inherit;overflow=hidden;fillColor=none;top=0;left=0;bottom=0;right=0;pointerEvents=1;fontSize=16;" vertex="1" parent="kf2SuqQNubpcyltskz7_-157">
                    <mxGeometry x="160" width="160" height="97" as="geometry">
                        <mxRectangle width="160" height="97" as="alternateBounds"/>
                    </mxGeometry>
                </mxCell>
                <mxCell id="kf2SuqQNubpcyltskz7_-160" value="auto" style="shape=partialRectangle;html=1;whiteSpace=wrap;connectable=0;strokeColor=inherit;overflow=hidden;fillColor=none;top=0;left=0;bottom=0;right=0;pointerEvents=1;fontSize=16;" vertex="1" parent="kf2SuqQNubpcyltskz7_-157">
                    <mxGeometry x="320" width="160" height="97" as="geometry">
                        <mxRectangle width="160" height="97" as="alternateBounds"/>
                    </mxGeometry>
                </mxCell>
                <mxCell id="kf2SuqQNubpcyltskz7_-183" value="" style="shape=tableRow;horizontal=0;startSize=0;swimlaneHead=0;swimlaneBody=0;strokeColor=inherit;top=0;left=0;bottom=0;right=0;collapsible=0;dropTarget=0;fillColor=none;points=[[0,0.5],[1,0.5]];portConstraint=eastwest;fontSize=16;" vertex="1" parent="kf2SuqQNubpcyltskz7_-156">
                    <mxGeometry y="97" width="480" height="97" as="geometry"/>
                </mxCell>
                <mxCell id="kf2SuqQNubpcyltskz7_-184" value="Program ID" style="shape=partialRectangle;html=1;whiteSpace=wrap;connectable=0;strokeColor=inherit;overflow=hidden;fillColor=none;top=0;left=0;bottom=0;right=0;pointerEvents=1;fontSize=16;" vertex="1" parent="kf2SuqQNubpcyltskz7_-183">
                    <mxGeometry width="160" height="97" as="geometry">
                        <mxRectangle width="160" height="97" as="alternateBounds"/>
                    </mxGeometry>
                </mxCell>
                <mxCell id="kf2SuqQNubpcyltskz7_-185" value="Foreign key&lt;div&gt;(Programs)&lt;/div&gt;" style="shape=partialRectangle;html=1;whiteSpace=wrap;connectable=0;strokeColor=inherit;overflow=hidden;fillColor=none;top=0;left=0;bottom=0;right=0;pointerEvents=1;fontSize=16;" vertex="1" parent="kf2SuqQNubpcyltskz7_-183">
                    <mxGeometry x="160" width="160" height="97" as="geometry">
                        <mxRectangle width="160" height="97" as="alternateBounds"/>
                    </mxGeometry>
                </mxCell>
                <mxCell id="kf2SuqQNubpcyltskz7_-186" value="Required&lt;div&gt;(Choose from dropdown)&lt;/div&gt;" style="shape=partialRectangle;html=1;whiteSpace=wrap;connectable=0;strokeColor=inherit;overflow=hidden;fillColor=none;top=0;left=0;bottom=0;right=0;pointerEvents=1;fontSize=16;" vertex="1" parent="kf2SuqQNubpcyltskz7_-183">
                    <mxGeometry x="320" width="160" height="97" as="geometry">
                        <mxRectangle width="160" height="97" as="alternateBounds"/>
                    </mxGeometry>
                </mxCell>
                <mxCell id="kf2SuqQNubpcyltskz7_-161" value="" style="shape=tableRow;horizontal=0;startSize=0;swimlaneHead=0;swimlaneBody=0;strokeColor=inherit;top=0;left=0;bottom=0;right=0;collapsible=0;dropTarget=0;fillColor=none;points=[[0,0.5],[1,0.5]];portConstraint=eastwest;fontSize=16;" vertex="1" parent="kf2SuqQNubpcyltskz7_-156">
                    <mxGeometry y="194" width="480" height="96" as="geometry"/>
                </mxCell>
                <mxCell id="kf2SuqQNubpcyltskz7_-162" value="userID" style="shape=partialRectangle;html=1;whiteSpace=wrap;connectable=0;strokeColor=inherit;overflow=hidden;fillColor=none;top=0;left=0;bottom=0;right=0;pointerEvents=1;fontSize=16;" vertex="1" parent="kf2SuqQNubpcyltskz7_-161">
                    <mxGeometry width="160" height="96" as="geometry">
                        <mxRectangle width="160" height="96" as="alternateBounds"/>
                    </mxGeometry>
                </mxCell>
                <mxCell id="kf2SuqQNubpcyltskz7_-163" value="Foreign Key" style="shape=partialRectangle;html=1;whiteSpace=wrap;connectable=0;strokeColor=inherit;overflow=hidden;fillColor=none;top=0;left=0;bottom=0;right=0;pointerEvents=1;fontSize=16;" vertex="1" parent="kf2SuqQNubpcyltskz7_-161">
                    <mxGeometry x="160" width="160" height="96" as="geometry">
                        <mxRectangle width="160" height="96" as="alternateBounds"/>
                    </mxGeometry>
                </mxCell>
                <mxCell id="kf2SuqQNubpcyltskz7_-164" value="&lt;span style=&quot;color: rgb(0, 0, 0);&quot;&gt;AUTO( from auth)&lt;/span&gt;" style="shape=partialRectangle;html=1;whiteSpace=wrap;connectable=0;strokeColor=inherit;overflow=hidden;fillColor=none;top=0;left=0;bottom=0;right=0;pointerEvents=1;fontSize=16;" vertex="1" parent="kf2SuqQNubpcyltskz7_-161">
                    <mxGeometry x="320" width="160" height="96" as="geometry">
                        <mxRectangle width="160" height="96" as="alternateBounds"/>
                    </mxGeometry>
                </mxCell>
                <mxCell id="kf2SuqQNubpcyltskz7_-165" value="" style="shape=tableRow;horizontal=0;startSize=0;swimlaneHead=0;swimlaneBody=0;strokeColor=inherit;top=0;left=0;bottom=0;right=0;collapsible=0;dropTarget=0;fillColor=none;points=[[0,0.5],[1,0.5]];portConstraint=eastwest;fontSize=16;" vertex="1" parent="kf2SuqQNubpcyltskz7_-156">
                    <mxGeometry y="290" width="480" height="97" as="geometry"/>
                </mxCell>
                <mxCell id="kf2SuqQNubpcyltskz7_-166" value="" style="shape=partialRectangle;html=1;whiteSpace=wrap;connectable=0;strokeColor=inherit;overflow=hidden;fillColor=none;top=0;left=0;bottom=0;right=0;pointerEvents=1;fontSize=16;" vertex="1" parent="kf2SuqQNubpcyltskz7_-165">
                    <mxGeometry width="160" height="97" as="geometry">
                        <mxRectangle width="160" height="97" as="alternateBounds"/>
                    </mxGeometry>
                </mxCell>
                <mxCell id="kf2SuqQNubpcyltskz7_-167" value="" style="shape=partialRectangle;html=1;whiteSpace=wrap;connectable=0;strokeColor=inherit;overflow=hidden;fillColor=none;top=0;left=0;bottom=0;right=0;pointerEvents=1;fontSize=16;" vertex="1" parent="kf2SuqQNubpcyltskz7_-165">
                    <mxGeometry x="160" width="160" height="97" as="geometry">
                        <mxRectangle width="160" height="97" as="alternateBounds"/>
                    </mxGeometry>
                </mxCell>
                <mxCell id="kf2SuqQNubpcyltskz7_-168" value="" style="shape=partialRectangle;html=1;whiteSpace=wrap;connectable=0;strokeColor=inherit;overflow=hidden;fillColor=none;top=0;left=0;bottom=0;right=0;pointerEvents=1;fontSize=16;" vertex="1" parent="kf2SuqQNubpcyltskz7_-165">
                    <mxGeometry x="320" width="160" height="97" as="geometry">
                        <mxRectangle width="160" height="97" as="alternateBounds"/>
                    </mxGeometry>
                </mxCell>
                <mxCell id="kf2SuqQNubpcyltskz7_-169" value="" style="shape=table;startSize=0;container=1;collapsible=0;childLayout=tableLayout;fontSize=16;" vertex="1" parent="1">
                    <mxGeometry x="40" y="800" width="480" height="290" as="geometry"/>
                </mxCell>
                <mxCell id="kf2SuqQNubpcyltskz7_-170" value="" style="shape=tableRow;horizontal=0;startSize=0;swimlaneHead=0;swimlaneBody=0;strokeColor=inherit;top=0;left=0;bottom=0;right=0;collapsible=0;dropTarget=0;fillColor=none;points=[[0,0.5],[1,0.5]];portConstraint=eastwest;fontSize=16;" vertex="1" parent="kf2SuqQNubpcyltskz7_-169">
                    <mxGeometry width="480" height="97" as="geometry"/>
                </mxCell>
                <mxCell id="kf2SuqQNubpcyltskz7_-171" value="Title" style="shape=partialRectangle;html=1;whiteSpace=wrap;connectable=0;strokeColor=inherit;overflow=hidden;fillColor=none;top=0;left=0;bottom=0;right=0;pointerEvents=1;fontSize=16;" vertex="1" parent="kf2SuqQNubpcyltskz7_-170">
                    <mxGeometry width="160" height="97" as="geometry">
                        <mxRectangle width="160" height="97" as="alternateBounds"/>
                    </mxGeometry>
                </mxCell>
                <mxCell id="kf2SuqQNubpcyltskz7_-172" value="text" style="shape=partialRectangle;html=1;whiteSpace=wrap;connectable=0;strokeColor=inherit;overflow=hidden;fillColor=none;top=0;left=0;bottom=0;right=0;pointerEvents=1;fontSize=16;" vertex="1" parent="kf2SuqQNubpcyltskz7_-170">
                    <mxGeometry x="160" width="160" height="97" as="geometry">
                        <mxRectangle width="160" height="97" as="alternateBounds"/>
                    </mxGeometry>
                </mxCell>
                <mxCell id="kf2SuqQNubpcyltskz7_-173" value="required (manual summary)" style="shape=partialRectangle;html=1;whiteSpace=wrap;connectable=0;strokeColor=inherit;overflow=hidden;fillColor=none;top=0;left=0;bottom=0;right=0;pointerEvents=1;fontSize=16;" vertex="1" parent="kf2SuqQNubpcyltskz7_-170">
                    <mxGeometry x="320" width="160" height="97" as="geometry">
                        <mxRectangle width="160" height="97" as="alternateBounds"/>
                    </mxGeometry>
                </mxCell>
                <mxCell id="kf2SuqQNubpcyltskz7_-174" value="" style="shape=tableRow;horizontal=0;startSize=0;swimlaneHead=0;swimlaneBody=0;strokeColor=inherit;top=0;left=0;bottom=0;right=0;collapsible=0;dropTarget=0;fillColor=none;points=[[0,0.5],[1,0.5]];portConstraint=eastwest;fontSize=16;" vertex="1" parent="kf2SuqQNubpcyltskz7_-169">
                    <mxGeometry y="97" width="480" height="96" as="geometry"/>
                </mxCell>
                <mxCell id="kf2SuqQNubpcyltskz7_-175" value="description" style="shape=partialRectangle;html=1;whiteSpace=wrap;connectable=0;strokeColor=inherit;overflow=hidden;fillColor=none;top=0;left=0;bottom=0;right=0;pointerEvents=1;fontSize=16;" vertex="1" parent="kf2SuqQNubpcyltskz7_-174">
                    <mxGeometry width="160" height="96" as="geometry">
                        <mxRectangle width="160" height="96" as="alternateBounds"/>
                    </mxGeometry>
                </mxCell>
                <mxCell id="kf2SuqQNubpcyltskz7_-176" value="long text" style="shape=partialRectangle;html=1;whiteSpace=wrap;connectable=0;strokeColor=inherit;overflow=hidden;fillColor=none;top=0;left=0;bottom=0;right=0;pointerEvents=1;fontSize=16;" vertex="1" parent="kf2SuqQNubpcyltskz7_-174">
                    <mxGeometry x="160" width="160" height="96" as="geometry">
                        <mxRectangle width="160" height="96" as="alternateBounds"/>
                    </mxGeometry>
                </mxCell>
                <mxCell id="kf2SuqQNubpcyltskz7_-177" value="required ( manual detailed explanation)" style="shape=partialRectangle;html=1;whiteSpace=wrap;connectable=0;strokeColor=inherit;overflow=hidden;fillColor=none;top=0;left=0;bottom=0;right=0;pointerEvents=1;fontSize=16;" vertex="1" parent="kf2SuqQNubpcyltskz7_-174">
                    <mxGeometry x="320" width="160" height="96" as="geometry">
                        <mxRectangle width="160" height="96" as="alternateBounds"/>
                    </mxGeometry>
                </mxCell>
                <mxCell id="kf2SuqQNubpcyltskz7_-178" value="" style="shape=tableRow;horizontal=0;startSize=0;swimlaneHead=0;swimlaneBody=0;strokeColor=inherit;top=0;left=0;bottom=0;right=0;collapsible=0;dropTarget=0;fillColor=none;points=[[0,0.5],[1,0.5]];portConstraint=eastwest;fontSize=16;" vertex="1" parent="kf2SuqQNubpcyltskz7_-169">
                    <mxGeometry y="193" width="480" height="97" as="geometry"/>
                </mxCell>
                <mxCell id="kf2SuqQNubpcyltskz7_-179" value="step by step instructions&amp;nbsp;" style="shape=partialRectangle;html=1;whiteSpace=wrap;connectable=0;strokeColor=inherit;overflow=hidden;fillColor=none;top=0;left=0;bottom=0;right=0;pointerEvents=1;fontSize=16;" vertex="1" parent="kf2SuqQNubpcyltskz7_-178">
                    <mxGeometry width="160" height="97" as="geometry">
                        <mxRectangle width="160" height="97" as="alternateBounds"/>
                    </mxGeometry>
                </mxCell>
                <mxCell id="kf2SuqQNubpcyltskz7_-180" value="long text" style="shape=partialRectangle;html=1;whiteSpace=wrap;connectable=0;strokeColor=inherit;overflow=hidden;fillColor=none;top=0;left=0;bottom=0;right=0;pointerEvents=1;fontSize=16;" vertex="1" parent="kf2SuqQNubpcyltskz7_-178">
                    <mxGeometry x="160" width="160" height="97" as="geometry">
                        <mxRectangle width="160" height="97" as="alternateBounds"/>
                    </mxGeometry>
                </mxCell>
                <mxCell id="kf2SuqQNubpcyltskz7_-181" value="&lt;span style=&quot;color: rgb(0, 0, 0);&quot;&gt;optional ( but recommended for demo )&lt;/span&gt;" style="shape=partialRectangle;html=1;whiteSpace=wrap;connectable=0;strokeColor=inherit;overflow=hidden;fillColor=none;top=0;left=0;bottom=0;right=0;pointerEvents=1;fontSize=16;" vertex="1" parent="kf2SuqQNubpcyltskz7_-178">
                    <mxGeometry x="320" width="160" height="97" as="geometry">
                        <mxRectangle width="160" height="97" as="alternateBounds"/>
                    </mxGeometry>
                </mxCell>
                <mxCell id="kf2SuqQNubpcyltskz7_-207" value="" style="shape=singleArrow;whiteSpace=wrap;html=1;" vertex="1" parent="1">
                    <mxGeometry x="520" y="529" width="100" height="60" as="geometry"/>
                </mxCell>
                <mxCell id="kf2SuqQNubpcyltskz7_-208" value="" style="shape=singleArrow;whiteSpace=wrap;html=1;" vertex="1" parent="1">
                    <mxGeometry x="520" y="630" width="100" height="60" as="geometry"/>
                </mxCell>
                <mxCell id="kf2SuqQNubpcyltskz7_-209" value="" style="shape=singleArrow;whiteSpace=wrap;html=1;" vertex="1" parent="1">
                    <mxGeometry x="520" y="720" width="100" height="60" as="geometry"/>
                </mxCell>
                <mxCell id="kf2SuqQNubpcyltskz7_-210" value="" style="shape=singleArrow;whiteSpace=wrap;html=1;" vertex="1" parent="1">
                    <mxGeometry x="520" y="820" width="100" height="60" as="geometry"/>
                </mxCell>
                <mxCell id="kf2SuqQNubpcyltskz7_-211" value="" style="shape=singleArrow;whiteSpace=wrap;html=1;" vertex="1" parent="1">
                    <mxGeometry x="520" y="915" width="100" height="60" as="geometry"/>
                </mxCell>
                <mxCell id="kf2SuqQNubpcyltskz7_-212" value="" style="shape=singleArrow;whiteSpace=wrap;html=1;" vertex="1" parent="1">
                    <mxGeometry x="520" y="1020" width="100" height="60" as="geometry"/>
                </mxCell>
                <mxCell id="kf2SuqQNubpcyltskz7_-213" value="Unique report ID" style="text;html=1;align=center;verticalAlign=middle;whiteSpace=wrap;rounded=0;" vertex="1" parent="1">
                    <mxGeometry x="590" y="544" width="170" height="30" as="geometry"/>
                </mxCell>
                <mxCell id="kf2SuqQNubpcyltskz7_-214" value="Which bug bounty program the report belongs to" style="text;html=1;align=center;verticalAlign=middle;whiteSpace=wrap;rounded=0;" vertex="1" parent="1">
                    <mxGeometry x="620" y="645" width="210" height="30" as="geometry"/>
                </mxCell>
                <mxCell id="kf2SuqQNubpcyltskz7_-215" value="Researcher submitting" style="text;html=1;align=center;verticalAlign=middle;whiteSpace=wrap;rounded=0;" vertex="1" parent="1">
                    <mxGeometry x="620" y="735" width="170" height="30" as="geometry"/>
                </mxCell>
                <mxCell id="kf2SuqQNubpcyltskz7_-216" value="Short summary of the bug " style="text;html=1;align=center;verticalAlign=middle;whiteSpace=wrap;rounded=0;" vertex="1" parent="1">
                    <mxGeometry x="620" y="835" width="170" height="30" as="geometry"/>
                </mxCell>
                <mxCell id="kf2SuqQNubpcyltskz7_-217" value="Detailed explanation (what, where, how, impact)" style="text;html=1;align=center;verticalAlign=middle;whiteSpace=wrap;rounded=0;" vertex="1" parent="1">
                    <mxGeometry x="625" y="930" width="170" height="30" as="geometry"/>
                </mxCell>
                <mxCell id="kf2SuqQNubpcyltskz7_-218" value="Step-by-step instructions" style="text;html=1;align=center;verticalAlign=middle;whiteSpace=wrap;rounded=0;" vertex="1" parent="1">
                    <mxGeometry x="625" y="1035" width="170" height="30" as="geometry"/>
                </mxCell>
            </root>
        </mxGraphModel>
    </diagram>
    <diagram id="pQXKbCHzTHgdHbrKSr1b" name="Page-3">
        <mxGraphModel dx="1033" dy="1879" grid="1" gridSize="10" guides="1" tooltips="1" connect="1" arrows="1" fold="1" page="1" pageScale="1" pageWidth="850" pageHeight="1100" math="0" shadow="0">
            <root>
                <mxCell id="0"/>
                <mxCell id="1" parent="0"/>
                <mxCell id="jS6hZ1hzpbuRDqw1I9_M-15" value="" style="rounded=0;whiteSpace=wrap;html=1;" vertex="1" parent="1">
                    <mxGeometry x="40" y="-655" width="100" height="60" as="geometry"/>
                </mxCell>
                <mxCell id="jS6hZ1hzpbuRDqw1I9_M-16" value="" style="rounded=0;whiteSpace=wrap;html=1;" vertex="1" parent="1">
                    <mxGeometry x="50" y="-630" width="120" height="60" as="geometry"/>
                </mxCell>
                <mxCell id="jS6hZ1hzpbuRDqw1I9_M-17" value="" style="rounded=0;whiteSpace=wrap;html=1;" vertex="1" parent="1">
                    <mxGeometry x="30" y="-740" width="770" height="400" as="geometry"/>
                </mxCell>
                <mxCell id="jS6hZ1hzpbuRDqw1I9_M-19" value="" style="rounded=0;whiteSpace=wrap;html=1;" vertex="1" parent="1">
                    <mxGeometry x="30" y="-740" width="770" height="60" as="geometry"/>
                </mxCell>
                <mxCell id="jS6hZ1hzpbuRDqw1I9_M-20" value="App name" style="ellipse;whiteSpace=wrap;html=1;" vertex="1" parent="1">
                    <mxGeometry x="40" y="-733.75" width="120" height="47.5" as="geometry"/>
                </mxCell>
                <mxCell id="jS6hZ1hzpbuRDqw1I9_M-22" value="Home" style="text;html=1;align=center;verticalAlign=middle;whiteSpace=wrap;rounded=0;" vertex="1" parent="1">
                    <mxGeometry x="60" y="-640" width="60" height="30" as="geometry"/>
                </mxCell>
                <mxCell id="jS6hZ1hzpbuRDqw1I9_M-23" value="Profile" style="text;html=1;align=center;verticalAlign=middle;whiteSpace=wrap;rounded=0;" vertex="1" parent="1">
                    <mxGeometry x="60" y="-580" width="60" height="30" as="geometry"/>
                </mxCell>
                <mxCell id="jS6hZ1hzpbuRDqw1I9_M-24" value="Submit a report" style="text;html=1;align=center;verticalAlign=middle;whiteSpace=wrap;rounded=0;" vertex="1" parent="1">
                    <mxGeometry x="60" y="-500" width="60" height="30" as="geometry"/>
                </mxCell>
                <mxCell id="jS6hZ1hzpbuRDqw1I9_M-25" value="Documentation" style="text;html=1;align=center;verticalAlign=middle;whiteSpace=wrap;rounded=0;" vertex="1" parent="1">
                    <mxGeometry x="60" y="-430" width="60" height="50" as="geometry"/>
                </mxCell>
                <mxCell id="jS6hZ1hzpbuRDqw1I9_M-26" value="" style="endArrow=none;html=1;entryX=0.153;entryY=0.967;entryDx=0;entryDy=0;entryPerimeter=0;exitX=0.152;exitY=1.008;exitDx=0;exitDy=0;exitPerimeter=0;" edge="1" source="jS6hZ1hzpbuRDqw1I9_M-17" target="jS6hZ1hzpbuRDqw1I9_M-19" parent="1">
                    <mxGeometry width="50" height="50" relative="1" as="geometry">
                        <mxPoint x="110" y="-580" as="sourcePoint"/>
                        <mxPoint x="160" y="-630" as="targetPoint"/>
                    </mxGeometry>
                </mxCell>
                <mxCell id="jS6hZ1hzpbuRDqw1I9_M-27" value="Contact us" style="rounded=1;whiteSpace=wrap;html=1;" vertex="1" parent="1">
                    <mxGeometry x="500" y="-731.87" width="120" height="43.75" as="geometry"/>
                </mxCell>
                <mxCell id="jS6hZ1hzpbuRDqw1I9_M-28" value="Log in" style="rounded=1;whiteSpace=wrap;html=1;" vertex="1" parent="1">
                    <mxGeometry x="650" y="-731.87" width="120" height="43.75" as="geometry"/>
                </mxCell>
                <mxCell id="jS6hZ1hzpbuRDqw1I9_M-33" value="&lt;h1 style=&quot;margin-top: 0px;&quot;&gt;Documentation&lt;/h1&gt;&lt;p&gt;Lorem ipsum dolor sit amet, consectetur adipisicing elit, sed do eiusmod tempor incididunt ut labore et dolore magna aliqua.&lt;/p&gt;&lt;p&gt;&lt;br&gt;&lt;/p&gt;&lt;h1 style=&quot;color: rgb(63, 63, 63); scrollbar-color: rgb(226, 226, 226) rgb(251, 251, 251); margin-top: 0px;&quot;&gt;How it works?&lt;/h1&gt;&lt;div&gt;&lt;span style=&quot;color: rgb(63, 63, 63);&quot;&gt;Lorem ipsum dolor sit amet, consectetur adipisicing elit, sed do eiusmod tempor incididunt ut labore et dolore magna aliqua.&lt;/span&gt;&lt;/div&gt;&lt;div&gt;&lt;span style=&quot;color: rgb(63, 63, 63);&quot;&gt;&lt;br&gt;&lt;/span&gt;&lt;/div&gt;&lt;div&gt;&lt;span style=&quot;color: rgb(63, 63, 63);&quot;&gt;&lt;h1 style=&quot;scrollbar-color: rgb(226, 226, 226) rgb(251, 251, 251); margin-top: 0px; color: rgb(63, 63, 63);&quot;&gt;About us&lt;/h1&gt;&lt;div&gt;&lt;h1 style=&quot;scrollbar-color: rgb(226, 226, 226) rgb(251, 251, 251); margin-top: 0px; color: rgb(63, 63, 63);&quot;&gt;&lt;span style=&quot;color: rgb(63, 63, 63); font-size: 12px; font-weight: 400;&quot;&gt;Lorem ipsum dolor sit amet, consectetur adipisicing elit, sed do eiusmod tempor incididunt ut labore et dolore magna aliqua.&lt;/span&gt;&lt;/h1&gt;&lt;/div&gt;&lt;/span&gt;&lt;/div&gt;&lt;div&gt;&lt;br&gt;&lt;/div&gt;" style="text;html=1;whiteSpace=wrap;overflow=hidden;rounded=0;" vertex="1" parent="1">
                    <mxGeometry x="170" y="-660" width="500" height="290" as="geometry"/>
                </mxCell>
            </root>
        </mxGraphModel>
    </diagram>
    <diagram id="aLkrg2p9U3zAIyqV3INU" name="Page-4">
        <mxGraphModel dx="1033" dy="779" grid="1" gridSize="10" guides="1" tooltips="1" connect="1" arrows="1" fold="1" page="1" pageScale="1" pageWidth="850" pageHeight="1100" math="0" shadow="0">
            <root>
                <mxCell id="0"/>
                <mxCell id="1" parent="0"/>
                <mxCell id="385M38RlFlmdSG5CWATM-2" value="&lt;br&gt;&lt;br&gt;&lt;br&gt;&lt;br&gt;&lt;br&gt;&lt;br&gt;&lt;br&gt;&lt;br&gt;&lt;br&gt;&lt;br&gt;&lt;br&gt;&lt;br&gt;&lt;br&gt;&lt;br&gt;&lt;br&gt;&lt;br&gt;&lt;br&gt;&lt;br&gt;&lt;br&gt;&lt;br&gt;&lt;br&gt;&lt;br&gt;&lt;br&gt;&lt;br&gt;&lt;br&gt;&lt;br&gt;&lt;br&gt;&lt;br&gt;&lt;br&gt;&lt;br&gt;&lt;br&gt;&lt;br&gt;&lt;br&gt;&lt;br&gt;&lt;br&gt;&lt;br&gt;&lt;br&gt;&lt;br&gt;&lt;br&gt;&lt;font style=&quot;font-size: 27px;&quot;&gt;Scan auto filled Columns&lt;/font&gt;&lt;br&gt;&lt;table&gt;&lt;thead&gt;&lt;tr&gt;&lt;th&gt;Column&lt;/th&gt;&lt;th&gt;Type&lt;/th&gt;&lt;th&gt;Purpose&lt;/th&gt;&lt;/tr&gt;&lt;/thead&gt;&lt;tbody&gt;&lt;tr&gt;&lt;td&gt;&lt;strong&gt;ai_tags&lt;/strong&gt;&lt;/td&gt;&lt;td&gt;JSON&lt;/td&gt;&lt;td&gt;Vulnerability classification (e.g.,&lt;span style=&quot;color: rgb(63, 63, 63); background-color: rgb(60, 60, 60);&quot;&gt;{&lt;/span&gt;&lt;span style=&quot;color: rgb(63, 63, 63);&quot;&gt; &quot;type&quot;: &quot;XSS&quot;, &quot;confidence&quot;: 0.87 &lt;/span&gt;&lt;span style=&quot;color: rgb(63, 63, 63); background-color: rgb(60, 60, 60);&quot;&gt;}&lt;/span&gt;)&lt;span style=&quot;background-color: rgb(60, 60, 60);&quot;&gt;&lt;br&gt;&lt;/span&gt;&lt;/td&gt;&lt;/tr&gt;&lt;tr&gt;&lt;td&gt;&lt;strong&gt;ai_severity&lt;/strong&gt;&lt;/td&gt;&lt;td&gt;ENUM (Low/Medium/High/Critical)&lt;/td&gt;&lt;td&gt;Estimated severity (CVSS-like)&lt;/td&gt;&lt;/tr&gt;&lt;tr&gt;&lt;td&gt;&lt;strong&gt;scan_results&lt;/strong&gt;&lt;/td&gt;&lt;td&gt;JSON&lt;/td&gt;&lt;td&gt;URL + File scan results (forms, suspicious scripts, malware hits, etc.)&lt;/td&gt;&lt;/tr&gt;&lt;tr&gt;&lt;td&gt;&lt;strong&gt;status&lt;/strong&gt;&lt;/td&gt;&lt;td&gt;ENUM (Pending, Accepted, Rejected, Duplicate)&lt;/td&gt;&lt;td&gt;Triage outcome&lt;/td&gt;&lt;/tr&gt;&lt;tr&gt;&lt;td&gt;&lt;strong&gt;created_at&lt;/strong&gt;&lt;/td&gt;&lt;td&gt;timestamp&lt;/td&gt;&lt;td&gt;Submission time&lt;/td&gt;&lt;/tr&gt;&lt;tr&gt;&lt;td&gt;&lt;strong&gt;updated_at&lt;/strong&gt;&lt;/td&gt;&lt;td&gt;timestamp&lt;/td&gt;&lt;td&gt;Last update&lt;/td&gt;&lt;/tr&gt;&lt;/tbody&gt;&lt;/table&gt;" style="text;whiteSpace=wrap;html=1;" vertex="1" parent="1">
                    <mxGeometry x="60" y="20" width="560" height="780" as="geometry"/>
                </mxCell>
                <UserObject label="&lt;br&gt;&lt;br&gt;&lt;br&gt;&lt;br&gt;&lt;br&gt;&lt;br&gt;&lt;br&gt;&lt;br&gt;&lt;br&gt;&lt;br&gt;&lt;br&gt;&lt;br&gt;&lt;br&gt;&lt;br&gt;&lt;br&gt;&lt;br&gt;&lt;br&gt;&lt;br&gt;&lt;br&gt;&lt;br&gt;&lt;br&gt;&lt;br&gt;&lt;br&gt;&lt;font style=&quot;font-size: 15px;&quot;&gt;In a bug bounty platform, you’ll usually have multiple &lt;strong style=&quot;&quot; data-end=&quot;219&quot; data-start=&quot;207&quot;&gt;programs&lt;/strong&gt; (targets).&lt;/font&gt;&lt;br data-end=&quot;233&quot; data-start=&quot;230&quot;&gt;&lt;br&gt;&lt;table&gt;&lt;thead&gt;&lt;tr&gt;&lt;th&gt;program_id&lt;/th&gt;&lt;th&gt;name&lt;/th&gt;&lt;th&gt;scope&lt;/th&gt;&lt;/tr&gt;&lt;/thead&gt;&lt;tbody&gt;&lt;tr&gt;&lt;td&gt;1&lt;/td&gt;&lt;td&gt;Acme Corp&lt;/td&gt;&lt;td&gt;&lt;code style=&quot;background-color: light-dark(#ffffff, var(--ge-dark-color, #121212));&quot;&gt;*.acme.com&lt;/code&gt;&lt;/td&gt;&lt;/tr&gt;&lt;tr&gt;&lt;td&gt;2&lt;/td&gt;&lt;td&gt;CyberBank&lt;/td&gt;&lt;td&gt;&lt;code style=&quot;background-color: light-dark(#ffffff, var(--ge-dark-color, #121212));&quot;&gt;api.cyberbank.com&lt;/code&gt;&lt;/td&gt;&lt;/tr&gt;&lt;tr&gt;&lt;td&gt;3&lt;/td&gt;&lt;td&gt;HealthSecure&lt;/td&gt;&lt;td&gt;&lt;code style=&quot;background-color: light-dark(#ffffff, var(--ge-dark-color, #121212));&quot;&gt;portal.&lt;span&gt;healthsecure&lt;/span&gt;.in&lt;/code&gt;&lt;/td&gt;&lt;/tr&gt;&lt;/tbody&gt;&lt;/table&gt;" link="&lt;table&gt;&#xa;&lt;thead&gt;&#xa;&lt;tr&gt;&#xa;&lt;th&gt;program_id&lt;/th&gt;&#xa;&lt;th&gt;name&lt;/th&gt;&#xa;&lt;th&gt;scope&lt;/th&gt;&#xa;&lt;/tr&gt;&#xa;&lt;/thead&gt;&#xa;&lt;tbody&gt;&#xa;&lt;tr&gt;&#xa;&lt;td&gt;1&lt;/td&gt;&#xa;&lt;td&gt;Acme Corp&lt;/td&gt;&#xa;&lt;td&gt;&lt;code&gt;*.acme.com&lt;/code&gt;&lt;/td&gt;&#xa;&lt;/tr&gt;&#xa;&lt;tr&gt;&#xa;&lt;td&gt;2&lt;/td&gt;&#xa;&lt;td&gt;CyberBank&lt;/td&gt;&#xa;&lt;td&gt;&lt;code&gt;api.cyberbank.com&lt;/code&gt;&lt;/td&gt;&#xa;&lt;/tr&gt;&#xa;&lt;tr&gt;&#xa;&lt;td&gt;3&lt;/td&gt;&#xa;&lt;td&gt;HealthSecure&lt;/td&gt;&#xa;&lt;td&gt;&lt;code&gt;portal.healthsecure.in&lt;/code&gt;&lt;/td&gt;&#xa;&lt;/tr&gt;&#xa;&lt;/tbody&gt;&#xa;&lt;/table&gt;" id="385M38RlFlmdSG5CWATM-3">
                    <mxCell style="text;whiteSpace=wrap;html=1;" vertex="1" parent="1">
                        <mxGeometry x="70" y="100" width="500" height="280" as="geometry"/>
                    </mxCell>
                </UserObject>
            </root>
        </mxGraphModel>
    </diagram>
</mxfile>